<?xml version="1.0" encoding="UTF-8" standalone="no"?>
<!DOCTYPE svg PUBLIC "-//W3C//DTD SVG 1.1//EN"
 "http://www.w3.org/Graphics/SVG/1.1/DTD/svg11.dtd">
<!-- Generated by graphviz version 2.47.3 (20210619.1520)
 -->
<!-- Title: dependencies Pages: 1 -->
<svg width="838pt" height="174pt"
 viewBox="0.00 0.00 838.00 173.80" xmlns="http://www.w3.org/2000/svg" xmlns:xlink="http://www.w3.org/1999/xlink">
<g id="graph0" class="graph" transform="scale(1 1) rotate(0) translate(4 169.8)">
<title>dependencies</title>
<polygon fill="white" stroke="transparent" points="-4,4 -4,-169.8 834,-169.8 834,4 -4,4"/>
<text text-anchor="middle" x="415" y="-8.2" font-family="sans-serif" font-size="14.00">dependencies</text>
<g id="clust1" class="cluster">
<title>cluster_HomeModule</title>
<polygon fill="none" stroke="black" stroke-dasharray="1,5" points="8,-32.8 8,-157.8 822,-157.8 822,-32.8 8,-32.8"/>
</g>
<g id="clust7" class="cluster">
<title>cluster_HomeModule_imports</title>
<polygon fill="none" stroke="black" points="660,-40.8 660,-92.8 814,-92.8 814,-40.8 660,-40.8"/>
</g>
<g id="clust2" class="cluster">
<title>cluster_HomeModule_declarations</title>
<polygon fill="none" stroke="black" points="16,-40.8 16,-92.8 652,-92.8 652,-40.8 16,-40.8"/>
</g>
<!-- CardViewComponent -->
<g id="node1" class="node">
<title>CardViewComponent</title>
<polygon fill="#ffffb3" stroke="black" points="644.36,-84.8 505.64,-84.8 505.64,-48.8 644.36,-48.8 644.36,-84.8"/>
<text text-anchor="middle" x="575" y="-62.6" font-family="Times,serif" font-size="14.00">CardViewComponent</text>
</g>
<!-- HomeModule -->
<g id="node5" class="node">
<title>HomeModule</title>
<polygon fill="#8dd3c7" stroke="black" points="467.76,-149.8 464.76,-153.8 443.76,-153.8 440.76,-149.8 374.24,-149.8 374.24,-113.8 467.76,-113.8 467.76,-149.8"/>
<text text-anchor="middle" x="421" y="-127.6" font-family="Times,serif" font-size="14.00">HomeModule</text>
</g>
<!-- CardViewComponent&#45;&gt;HomeModule -->
<g id="edge1" class="edge">
<title>CardViewComponent&#45;&gt;HomeModule</title>
<path fill="none" stroke="black" d="M575,-84.82C575,-102.17 575,-125.8 575,-125.8 575,-125.8 478.04,-125.8 478.04,-125.8"/>
<polygon fill="black" stroke="black" points="478.04,-122.3 468.04,-125.8 478.04,-129.3 478.04,-122.3"/>
</g>
<!-- ListViewComponent -->
<g id="node2" class="node">
<title>ListViewComponent</title>
<polygon fill="#ffffb3" stroke="black" points="487.93,-84.8 354.07,-84.8 354.07,-48.8 487.93,-48.8 487.93,-84.8"/>
<text text-anchor="middle" x="421" y="-62.6" font-family="Times,serif" font-size="14.00">ListViewComponent</text>
</g>
<!-- ListViewComponent&#45;&gt;HomeModule -->
<g id="edge2" class="edge">
<title>ListViewComponent&#45;&gt;HomeModule</title>
<path fill="none" stroke="black" d="M421,-84.91C421,-84.91 421,-103.79 421,-103.79"/>
<polygon fill="black" stroke="black" points="417.5,-103.79 421,-113.79 424.5,-103.79 417.5,-103.79"/>
</g>
<!-- OrdersViewComponent -->
<g id="node3" class="node">
<title>OrdersViewComponent</title>
<polygon fill="#ffffb3" stroke="black" points="335.74,-84.8 186.26,-84.8 186.26,-48.8 335.74,-48.8 335.74,-84.8"/>
<text text-anchor="middle" x="261" y="-62.6" font-family="Times,serif" font-size="14.00">OrdersViewComponent</text>
</g>
<!-- OrdersViewComponent&#45;&gt;HomeModule -->
<g id="edge3" class="edge">
<title>OrdersViewComponent&#45;&gt;HomeModule</title>
<path fill="none" stroke="black" d="M261,-84.82C261,-102.17 261,-125.8 261,-125.8 261,-125.8 363.86,-125.8 363.86,-125.8"/>
<polygon fill="black" stroke="black" points="363.86,-129.3 373.86,-125.8 363.86,-122.3 363.86,-129.3"/>
</g>
<!-- SingleCardComponent -->
<g id="node4" class="node">
<title>SingleCardComponent</title>
<polygon fill="#ffffb3" stroke="black" points="168.32,-84.8 23.68,-84.8 23.68,-48.8 168.32,-48.8 168.32,-84.8"/>
<text text-anchor="middle" x="96" y="-62.6" font-family="Times,serif" font-size="14.00">SingleCardComponent</text>
</g>
<!-- SingleCardComponent&#45;&gt;HomeModule -->
<g id="edge4" class="edge">
<title>SingleCardComponent&#45;&gt;HomeModule</title>
<path fill="none" stroke="black" d="M96,-85.08C96,-106.12 96,-137.8 96,-137.8 96,-137.8 364.09,-137.8 364.09,-137.8"/>
<polygon fill="black" stroke="black" points="364.09,-141.3 374.09,-137.8 364.09,-134.3 364.09,-141.3"/>
</g>
<!-- HomeRoutingModule -->
<g id="node6" class="node">
<title>HomeRoutingModule</title>
<polygon fill="#8dd3c7" stroke="black" points="806.38,-84.8 803.38,-88.8 782.38,-88.8 779.38,-84.8 667.62,-84.8 667.62,-48.8 806.38,-48.8 806.38,-84.8"/>
<text text-anchor="middle" x="737" y="-62.6" font-family="Times,serif" font-size="14.00">HomeRoutingModule</text>
</g>
<!-- HomeRoutingModule&#45;&gt;HomeModule -->
<g id="edge5" class="edge">
<title>HomeRoutingModule&#45;&gt;HomeModule</title>
<path fill="none" stroke="black" d="M737,-85.08C737,-106.12 737,-137.8 737,-137.8 737,-137.8 477.97,-137.8 477.97,-137.8"/>
<polygon fill="black" stroke="black" points="477.97,-134.3 467.97,-137.8 477.97,-141.3 477.97,-134.3"/>
</g>
</g>
</svg>
