<?xml version="1.0" encoding="UTF-8" standalone="no"?>
<!DOCTYPE svg PUBLIC "-//W3C//DTD SVG 1.1//EN"
 "http://www.w3.org/Graphics/SVG/1.1/DTD/svg11.dtd">
<!-- Generated by graphviz version 2.47.3 (20210619.1520)
 -->
<!-- Title: dependencies Pages: 1 -->
<svg width="922pt" height="247pt"
 viewBox="0.00 0.00 922.00 246.80" xmlns="http://www.w3.org/2000/svg" xmlns:xlink="http://www.w3.org/1999/xlink">
<g id="graph0" class="graph" transform="scale(1 1) rotate(0) translate(4 242.8)">
<title>dependencies</title>
<polygon fill="white" stroke="transparent" points="-4,4 -4,-242.8 918,-242.8 918,4 -4,4"/>
<text text-anchor="middle" x="457" y="-8.2" font-family="sans-serif" font-size="14.00">dependencies</text>
<g id="clust1" class="cluster">
<title>cluster_AppModule</title>
<polygon fill="none" stroke="black" stroke-dasharray="1,5" points="8,-32.8 8,-230.8 906,-230.8 906,-32.8 8,-32.8"/>
</g>
<g id="clust7" class="cluster">
<title>cluster_AppModule_imports</title>
<polygon fill="none" stroke="black" points="642,-40.8 642,-92.8 898,-92.8 898,-40.8 642,-40.8"/>
</g>
<g id="clust9" class="cluster">
<title>cluster_AppModule_bootstrap</title>
<polygon fill="none" stroke="black" points="435,-170.8 435,-222.8 559,-222.8 559,-170.8 435,-170.8"/>
</g>
<g id="clust2" class="cluster">
<title>cluster_AppModule_declarations</title>
<polygon fill="none" stroke="black" points="16,-40.8 16,-92.8 634,-92.8 634,-40.8 16,-40.8"/>
</g>
<!-- AppComponent -->
<g id="node1" class="node">
<title>AppComponent</title>
<polygon fill="#ffffb3" stroke="black" points="625.94,-84.8 520.06,-84.8 520.06,-48.8 625.94,-48.8 625.94,-84.8"/>
<text text-anchor="middle" x="573" y="-62.6" font-family="Times,serif" font-size="14.00">AppComponent</text>
</g>
<!-- AppModule -->
<g id="node5" class="node">
<title>AppModule</title>
<polygon fill="#8dd3c7" stroke="black" points="538.66,-149.8 535.66,-153.8 514.66,-153.8 511.66,-149.8 455.34,-149.8 455.34,-113.8 538.66,-113.8 538.66,-149.8"/>
<text text-anchor="middle" x="497" y="-127.6" font-family="Times,serif" font-size="14.00">AppModule</text>
</g>
<!-- AppComponent&#45;&gt;AppModule -->
<g id="edge1" class="edge">
<title>AppComponent&#45;&gt;AppModule</title>
<path fill="none" stroke="black" d="M529.55,-84.91C529.55,-84.91 529.55,-103.79 529.55,-103.79"/>
<polygon fill="black" stroke="black" points="526.05,-103.79 529.55,-113.79 533.05,-103.79 526.05,-103.79"/>
</g>
<!-- HeaderNavbarComponent -->
<g id="node2" class="node">
<title>HeaderNavbarComponent</title>
<polygon fill="#ffffb3" stroke="black" points="502.44,-84.8 339.56,-84.8 339.56,-48.8 502.44,-48.8 502.44,-84.8"/>
<text text-anchor="middle" x="421" y="-62.6" font-family="Times,serif" font-size="14.00">HeaderNavbarComponent</text>
</g>
<!-- HeaderNavbarComponent&#45;&gt;AppModule -->
<g id="edge2" class="edge">
<title>HeaderNavbarComponent&#45;&gt;AppModule</title>
<path fill="none" stroke="black" d="M478.82,-84.91C478.82,-84.91 478.82,-103.79 478.82,-103.79"/>
<polygon fill="black" stroke="black" points="475.32,-103.79 478.82,-113.79 482.32,-103.79 475.32,-103.79"/>
</g>
<!-- HomeComponent -->
<g id="node3" class="node">
<title>HomeComponent</title>
<polygon fill="#ffffb3" stroke="black" points="321.55,-84.8 206.45,-84.8 206.45,-48.8 321.55,-48.8 321.55,-84.8"/>
<text text-anchor="middle" x="264" y="-62.6" font-family="Times,serif" font-size="14.00">HomeComponent</text>
</g>
<!-- HomeComponent&#45;&gt;AppModule -->
<g id="edge3" class="edge">
<title>HomeComponent&#45;&gt;AppModule</title>
<path fill="none" stroke="black" d="M264,-84.82C264,-102.17 264,-125.8 264,-125.8 264,-125.8 445.08,-125.8 445.08,-125.8"/>
<polygon fill="black" stroke="black" points="445.08,-129.3 455.08,-125.8 445.08,-122.3 445.08,-129.3"/>
</g>
<!-- NewUserFormComponent -->
<g id="node4" class="node">
<title>NewUserFormComponent</title>
<polygon fill="#ffffb3" stroke="black" points="188.02,-84.8 23.98,-84.8 23.98,-48.8 188.02,-48.8 188.02,-84.8"/>
<text text-anchor="middle" x="106" y="-62.6" font-family="Times,serif" font-size="14.00">NewUserFormComponent</text>
</g>
<!-- NewUserFormComponent&#45;&gt;AppModule -->
<g id="edge4" class="edge">
<title>NewUserFormComponent&#45;&gt;AppModule</title>
<path fill="none" stroke="black" d="M106,-85.08C106,-106.12 106,-137.8 106,-137.8 106,-137.8 445.16,-137.8 445.16,-137.8"/>
<polygon fill="black" stroke="black" points="445.16,-141.3 455.16,-137.8 445.16,-134.3 445.16,-141.3"/>
</g>
<!-- AppComponent  -->
<g id="node8" class="node">
<title>AppComponent </title>
<polygon fill="#80b1d3" stroke="black" points="551.44,-214.8 442.56,-214.8 442.56,-178.8 551.44,-178.8 551.44,-214.8"/>
<text text-anchor="middle" x="497" y="-192.6" font-family="Times,serif" font-size="14.00">AppComponent </text>
</g>
<!-- AppModule&#45;&gt;AppComponent  -->
<g id="edge7" class="edge">
<title>AppModule&#45;&gt;AppComponent </title>
<path fill="none" stroke="black" stroke-dasharray="1,5" d="M497,-149.91C497,-149.91 497,-168.79 497,-168.79"/>
<polygon fill="black" stroke="black" points="493.5,-168.79 497,-178.79 500.5,-168.79 493.5,-168.79"/>
</g>
<!-- AppRoutingModule -->
<g id="node6" class="node">
<title>AppRoutingModule</title>
<polygon fill="#8dd3c7" stroke="black" points="890.27,-84.8 887.27,-88.8 866.27,-88.8 863.27,-84.8 761.73,-84.8 761.73,-48.8 890.27,-48.8 890.27,-84.8"/>
<text text-anchor="middle" x="826" y="-62.6" font-family="Times,serif" font-size="14.00">AppRoutingModule</text>
</g>
<!-- AppRoutingModule&#45;&gt;AppModule -->
<g id="edge5" class="edge">
<title>AppRoutingModule&#45;&gt;AppModule</title>
<path fill="none" stroke="black" d="M826,-85.08C826,-106.12 826,-137.8 826,-137.8 826,-137.8 548.67,-137.8 548.67,-137.8"/>
<polygon fill="black" stroke="black" points="548.67,-134.3 538.67,-137.8 548.67,-141.3 548.67,-134.3"/>
</g>
<!-- HomeModule -->
<g id="node7" class="node">
<title>HomeModule</title>
<polygon fill="#8dd3c7" stroke="black" points="743.76,-84.8 740.76,-88.8 719.76,-88.8 716.76,-84.8 650.24,-84.8 650.24,-48.8 743.76,-48.8 743.76,-84.8"/>
<text text-anchor="middle" x="697" y="-62.6" font-family="Times,serif" font-size="14.00">HomeModule</text>
</g>
<!-- HomeModule&#45;&gt;AppModule -->
<g id="edge6" class="edge">
<title>HomeModule&#45;&gt;AppModule</title>
<path fill="none" stroke="black" d="M697,-84.82C697,-102.17 697,-125.8 697,-125.8 697,-125.8 548.93,-125.8 548.93,-125.8"/>
<polygon fill="black" stroke="black" points="548.93,-122.3 538.93,-125.8 548.93,-129.3 548.93,-122.3"/>
</g>
</g>
</svg>
