<?xml version="1.0" encoding="UTF-8" standalone="no"?>
<!DOCTYPE svg PUBLIC "-//W3C//DTD SVG 1.1//EN"
 "http://www.w3.org/Graphics/SVG/1.1/DTD/svg11.dtd">
<!-- Generated by graphviz version 2.47.3 (20210619.1520)
 -->
<!-- Title: dependencies Pages: 1 -->
<svg width="1274pt" height="323pt"
 viewBox="0.00 0.00 1274.00 322.80" xmlns="http://www.w3.org/2000/svg" xmlns:xlink="http://www.w3.org/1999/xlink">
<g id="graph0" class="graph" transform="scale(1 1) rotate(0) translate(4 318.8)">
<title>dependencies</title>
<polygon fill="white" stroke="transparent" points="-4,4 -4,-318.8 1270,-318.8 1270,4 -4,4"/>
<text text-anchor="middle" x="633" y="-8.2" font-family="sans-serif" font-size="14.00">dependencies</text>
<g id="clust1" class="cluster">
<title>cluster_AppModule</title>
<polygon fill="none" stroke="black" stroke-dasharray="1,5" points="360,-108.8 360,-306.8 1258,-306.8 1258,-108.8 360,-108.8"/>
</g>
<g id="clust2" class="cluster">
<title>cluster_AppModule_declarations</title>
<polygon fill="none" stroke="black" points="632,-116.8 632,-168.8 1250,-168.8 1250,-116.8 632,-116.8"/>
</g>
<g id="clust7" class="cluster">
<title>cluster_AppModule_imports</title>
<polygon fill="none" stroke="black" points="368,-116.8 368,-168.8 624,-168.8 624,-116.8 368,-116.8"/>
</g>
<g id="clust9" class="cluster">
<title>cluster_AppModule_bootstrap</title>
<polygon fill="none" stroke="black" points="739,-246.8 739,-298.8 863,-298.8 863,-246.8 739,-246.8"/>
</g>
<g id="clust17" class="cluster">
<title>cluster_HomeModule</title>
<polygon fill="none" stroke="black" stroke-dasharray="1,5" points="8,-32.8 8,-100.8 822,-100.8 822,-32.8 8,-32.8"/>
</g>
<g id="clust18" class="cluster">
<title>cluster_HomeModule_declarations</title>
<polygon fill="none" stroke="black" points="178,-40.8 178,-92.8 814,-92.8 814,-40.8 178,-40.8"/>
</g>
<g id="clust23" class="cluster">
<title>cluster_HomeModule_imports</title>
<polygon fill="none" stroke="black" points="16,-40.8 16,-92.8 170,-92.8 170,-40.8 16,-40.8"/>
</g>
<!-- AppComponent -->
<g id="node1" class="node">
<title>AppComponent</title>
<polygon fill="#ffffb3" stroke="black" points="1241.94,-160.8 1136.06,-160.8 1136.06,-124.8 1241.94,-124.8 1241.94,-160.8"/>
<text text-anchor="middle" x="1189" y="-138.6" font-family="Times,serif" font-size="14.00">AppComponent</text>
</g>
<!-- AppModule -->
<g id="node5" class="node">
<title>AppModule</title>
<polygon fill="#8dd3c7" stroke="black" points="842.66,-225.8 839.66,-229.8 818.66,-229.8 815.66,-225.8 759.34,-225.8 759.34,-189.8 842.66,-189.8 842.66,-225.8"/>
<text text-anchor="middle" x="801" y="-203.6" font-family="Times,serif" font-size="14.00">AppModule</text>
</g>
<!-- AppComponent&#45;&gt;AppModule -->
<g id="edge1" class="edge">
<title>AppComponent&#45;&gt;AppModule</title>
<path fill="none" stroke="black" d="M1189,-161.08C1189,-182.12 1189,-213.8 1189,-213.8 1189,-213.8 852.89,-213.8 852.89,-213.8"/>
<polygon fill="black" stroke="black" points="852.89,-210.3 842.89,-213.8 852.89,-217.3 852.89,-210.3"/>
</g>
<!-- HeaderNavbarComponent -->
<g id="node2" class="node">
<title>HeaderNavbarComponent</title>
<polygon fill="#ffffb3" stroke="black" points="1118.44,-160.8 955.56,-160.8 955.56,-124.8 1118.44,-124.8 1118.44,-160.8"/>
<text text-anchor="middle" x="1037" y="-138.6" font-family="Times,serif" font-size="14.00">HeaderNavbarComponent</text>
</g>
<!-- HeaderNavbarComponent&#45;&gt;AppModule -->
<g id="edge2" class="edge">
<title>HeaderNavbarComponent&#45;&gt;AppModule</title>
<path fill="none" stroke="black" d="M1037,-160.82C1037,-178.17 1037,-201.8 1037,-201.8 1037,-201.8 852.92,-201.8 852.92,-201.8"/>
<polygon fill="black" stroke="black" points="852.92,-198.3 842.92,-201.8 852.92,-205.3 852.92,-198.3"/>
</g>
<!-- HomeComponent -->
<g id="node3" class="node">
<title>HomeComponent</title>
<polygon fill="#ffffb3" stroke="black" points="937.55,-160.8 822.45,-160.8 822.45,-124.8 937.55,-124.8 937.55,-160.8"/>
<text text-anchor="middle" x="880" y="-138.6" font-family="Times,serif" font-size="14.00">HomeComponent</text>
</g>
<!-- HomeComponent&#45;&gt;AppModule -->
<g id="edge3" class="edge">
<title>HomeComponent&#45;&gt;AppModule</title>
<path fill="none" stroke="black" d="M832.53,-160.91C832.53,-160.91 832.53,-179.79 832.53,-179.79"/>
<polygon fill="black" stroke="black" points="829.03,-179.79 832.53,-189.79 836.03,-179.79 829.03,-179.79"/>
</g>
<!-- NewUserFormComponent -->
<g id="node4" class="node">
<title>NewUserFormComponent</title>
<polygon fill="#ffffb3" stroke="black" points="804.02,-160.8 639.98,-160.8 639.98,-124.8 804.02,-124.8 804.02,-160.8"/>
<text text-anchor="middle" x="722" y="-138.6" font-family="Times,serif" font-size="14.00">NewUserFormComponent</text>
</g>
<!-- NewUserFormComponent&#45;&gt;AppModule -->
<g id="edge4" class="edge">
<title>NewUserFormComponent&#45;&gt;AppModule</title>
<path fill="none" stroke="black" d="M781.72,-160.91C781.72,-160.91 781.72,-179.79 781.72,-179.79"/>
<polygon fill="black" stroke="black" points="778.22,-179.79 781.72,-189.79 785.22,-179.79 778.22,-179.79"/>
</g>
<!-- AppComponent  -->
<g id="node8" class="node">
<title>AppComponent </title>
<polygon fill="#80b1d3" stroke="black" points="855.44,-290.8 746.56,-290.8 746.56,-254.8 855.44,-254.8 855.44,-290.8"/>
<text text-anchor="middle" x="801" y="-268.6" font-family="Times,serif" font-size="14.00">AppComponent </text>
</g>
<!-- AppModule&#45;&gt;AppComponent  -->
<g id="edge7" class="edge">
<title>AppModule&#45;&gt;AppComponent </title>
<path fill="none" stroke="black" stroke-dasharray="1,5" d="M801,-225.91C801,-225.91 801,-244.79 801,-244.79"/>
<polygon fill="black" stroke="black" points="797.5,-244.79 801,-254.79 804.5,-244.79 797.5,-244.79"/>
</g>
<!-- AppRoutingModule -->
<g id="node6" class="node">
<title>AppRoutingModule</title>
<polygon fill="#8dd3c7" stroke="black" points="616.27,-160.8 613.27,-164.8 592.27,-164.8 589.27,-160.8 487.73,-160.8 487.73,-124.8 616.27,-124.8 616.27,-160.8"/>
<text text-anchor="middle" x="552" y="-138.6" font-family="Times,serif" font-size="14.00">AppRoutingModule</text>
</g>
<!-- AppRoutingModule&#45;&gt;AppModule -->
<g id="edge5" class="edge">
<title>AppRoutingModule&#45;&gt;AppModule</title>
<path fill="none" stroke="black" d="M552,-160.82C552,-178.17 552,-201.8 552,-201.8 552,-201.8 749.32,-201.8 749.32,-201.8"/>
<polygon fill="black" stroke="black" points="749.32,-205.3 759.32,-201.8 749.32,-198.3 749.32,-205.3"/>
</g>
<!-- HomeModule -->
<g id="node7" class="node">
<title>HomeModule</title>
<polygon fill="#8dd3c7" stroke="black" points="469.76,-160.8 466.76,-164.8 445.76,-164.8 442.76,-160.8 376.24,-160.8 376.24,-124.8 469.76,-124.8 469.76,-160.8"/>
<text text-anchor="middle" x="423" y="-138.6" font-family="Times,serif" font-size="14.00">HomeModule</text>
</g>
<!-- HomeModule&#45;&gt;AppModule -->
<g id="edge6" class="edge">
<title>HomeModule&#45;&gt;AppModule</title>
<path fill="none" stroke="black" d="M423,-161.08C423,-182.12 423,-213.8 423,-213.8 423,-213.8 749.1,-213.8 749.1,-213.8"/>
<polygon fill="black" stroke="black" points="749.1,-217.3 759.1,-213.8 749.1,-210.3 749.1,-217.3"/>
</g>
<!-- CardViewComponent -->
<g id="node9" class="node">
<title>CardViewComponent</title>
<polygon fill="#ffffb3" stroke="black" points="806.36,-84.8 667.64,-84.8 667.64,-48.8 806.36,-48.8 806.36,-84.8"/>
<text text-anchor="middle" x="737" y="-62.6" font-family="Times,serif" font-size="14.00">CardViewComponent</text>
</g>
<!-- CardViewComponent&#45;&gt;HomeModule -->
<g id="edge8" class="edge">
<title>CardViewComponent&#45;&gt;HomeModule</title>
<path fill="none" stroke="black" d="M735.91,-84.84C735.91,-97.36 735.91,-111.8 735.91,-111.8 735.91,-111.8 446.44,-111.8 446.44,-111.8 446.44,-111.8 446.44,-114.77 446.44,-114.77"/>
<polygon fill="black" stroke="black" points="442.94,-114.77 446.44,-124.77 449.94,-114.77 442.94,-114.77"/>
</g>
<!-- ListViewComponent -->
<g id="node10" class="node">
<title>ListViewComponent</title>
<polygon fill="#ffffb3" stroke="black" points="649.93,-84.8 516.07,-84.8 516.07,-48.8 649.93,-48.8 649.93,-84.8"/>
<text text-anchor="middle" x="583" y="-62.6" font-family="Times,serif" font-size="14.00">ListViewComponent</text>
</g>
<!-- ListViewComponent&#45;&gt;HomeModule -->
<g id="edge9" class="edge">
<title>ListViewComponent&#45;&gt;HomeModule</title>
<path fill="none" stroke="black" d="M566.34,-85.04C566.34,-92.23 566.34,-98.8 566.34,-98.8 566.34,-98.8 423,-98.8 423,-98.8 423,-98.8 423,-114.65 423,-114.65"/>
<polygon fill="black" stroke="black" points="419.5,-114.65 423,-124.65 426.5,-114.65 419.5,-114.65"/>
</g>
<!-- OrdersViewComponent -->
<g id="node11" class="node">
<title>OrdersViewComponent</title>
<polygon fill="#ffffb3" stroke="black" points="497.74,-84.8 348.26,-84.8 348.26,-48.8 497.74,-48.8 497.74,-84.8"/>
<text text-anchor="middle" x="423" y="-62.6" font-family="Times,serif" font-size="14.00">OrdersViewComponent</text>
</g>
<!-- OrdersViewComponent&#45;&gt;HomeModule -->
<g id="edge10" class="edge">
<title>OrdersViewComponent&#45;&gt;HomeModule</title>
<path fill="none" stroke="black" d="M399.56,-84.81C399.56,-84.81 399.56,-114.65 399.56,-114.65"/>
<polygon fill="black" stroke="black" points="396.06,-114.65 399.56,-124.65 403.06,-114.65 396.06,-114.65"/>
</g>
<!-- SingleCardComponent -->
<g id="node12" class="node">
<title>SingleCardComponent</title>
<polygon fill="#ffffb3" stroke="black" points="330.32,-84.8 185.68,-84.8 185.68,-48.8 330.32,-48.8 330.32,-84.8"/>
<text text-anchor="middle" x="258" y="-62.6" font-family="Times,serif" font-size="14.00">SingleCardComponent</text>
</g>
<!-- SingleCardComponent&#45;&gt;HomeModule -->
<g id="edge11" class="edge">
<title>SingleCardComponent&#45;&gt;HomeModule</title>
<path fill="none" stroke="black" d="M258,-84.83C258,-105.57 258,-136.8 258,-136.8 258,-136.8 366.16,-136.8 366.16,-136.8"/>
<polygon fill="black" stroke="black" points="366.16,-140.3 376.16,-136.8 366.16,-133.3 366.16,-140.3"/>
</g>
<!-- HomeRoutingModule -->
<g id="node13" class="node">
<title>HomeRoutingModule</title>
<polygon fill="#8dd3c7" stroke="black" points="162.38,-84.8 159.38,-88.8 138.38,-88.8 135.38,-84.8 23.62,-84.8 23.62,-48.8 162.38,-48.8 162.38,-84.8"/>
<text text-anchor="middle" x="93" y="-62.6" font-family="Times,serif" font-size="14.00">HomeRoutingModule</text>
</g>
<!-- HomeRoutingModule&#45;&gt;HomeModule -->
<g id="edge12" class="edge">
<title>HomeRoutingModule&#45;&gt;HomeModule</title>
<path fill="none" stroke="black" d="M93,-85C93,-109.16 93,-148.8 93,-148.8 93,-148.8 366.07,-148.8 366.07,-148.8"/>
<polygon fill="black" stroke="black" points="366.07,-152.3 376.07,-148.8 366.07,-145.3 366.07,-152.3"/>
</g>
</g>
</svg>
